<?xml version="1.0" encoding="UTF-8"?>
<!DOCTYPE svg PUBLIC "-//W3C//DTD SVG 1.0//EN" "http://www.w3.org/TR/2001/REC-SVG-20010904/DTD/svg10.dtd">
<!-- Creator: CorelDRAW X8 -->
<svg xmlns="http://www.w3.org/2000/svg" xml:space="preserve" width="512px" height="512px" version="1.0" style="shape-rendering:geometricPrecision; text-rendering:geometricPrecision; image-rendering:optimizeQuality; fill-rule:evenodd; clip-rule:evenodd"
viewBox="0 0 5119988 5115999"
 xmlns:xlink="http://www.w3.org/1999/xlink">
 <defs>
  <style type="text/css">
   <![CDATA[
    .fil0 {fill:none}
    .fil1 {fill:white}
   ]]>
  </style>
 </defs>
 <g id="Layer_x0020_1">
  <metadata id="CorelCorpID_0Corel-Layer"/>
  <g id="_3128638062736">
   <rect class="fil0" y="6" width="5119994" height="5115996"/>
   <g>
    <path class="fil1" d="M1439171 3600530l849317 859584 258518 261646 261623 -258519 420191 -415163 -2150772 -2176737 -681802 673659 1042925 1055530z"/>
    <path class="fil1" d="M1891180 1067910l1075404 1088374 1075380 1088362 681802 -673659 -1042937 -1055541 -849317 -859573 -258506 -261646 -261646 258531 -420180 415152z"/>
    <path class="fil1" d="M2066201 4366455l-627797 -635374 -635386 627797 1263183 7577z"/>
    <path class="fil1" d="M1111281 1773622l2215636 2242402 32455 32844 -32845 32432 -294478 290973 612466 3670 701051 -692671 -304392 -308086 -32455 -32821 -2215636 -2242402 -32443 -32844 32845 -32431 294466 -290974 -612454 -3670 -701051 692671 304392 308063 32443 32844z"/>
    <path class="fil1" d="M3053823 749533l627785 635373 635374 -627797 -1263159 -7576z"/>
   </g>
  </g>
 </g>
</svg>
